<svg width="1200" height="760" viewBox="0 0 1200 760" fill="none" xmlns="http://www.w3.org/2000/svg">
  <defs>
    <linearGradient id="bgA" x1="0" y1="0" x2="1" y2="1">
      <stop offset="0%" stop-color="#E7FBF6"/>
      <stop offset="100%" stop-color="#B4E8DB"/>
    </linearGradient>
    <linearGradient id="bgB" x1="0" y1="0" x2="1" y2="1">
      <stop offset="0%" stop-color="#D4F2E9"/>
      <stop offset="100%" stop-color="#A7DACB"/>
    </linearGradient>
  </defs>

  <circle cx="480" cy="290" r="210" fill="#F5D37E" opacity="0.85"/>
  <rect x="85" y="355" width="330" height="250" rx="24" fill="url(#bgA)" stroke="#1E6164" stroke-width="8"/>
  <rect x="130" y="398" width="175" height="30" rx="6" fill="#0F5055"/>
  <rect x="130" y="445" width="250" height="14" rx="7" fill="#2B7E7F"/>
  <rect x="130" y="470" width="220" height="14" rx="7" fill="#2B7E7F"/>
  <rect x="130" y="495" width="190" height="14" rx="7" fill="#2B7E7F"/>
  <rect x="130" y="524" width="48" height="60" rx="6" fill="#CA4C47"/>
  <rect x="190" y="524" width="88" height="14" rx="7" fill="#1A5D64"/>

  <rect x="360" y="305" width="300" height="290" rx="24" fill="url(#bgB)" stroke="#1E6164" stroke-width="8"/>
  <text x="395" y="365" font-family="Verdana" font-size="58" font-weight="700" fill="#0D3A43">RESUME</text>
  <rect x="398" y="397" width="170" height="10" rx="5" fill="#1A5D64"/>
  <rect x="398" y="422" width="210" height="10" rx="5" fill="#1A5D64"/>
  <rect x="398" y="447" width="185" height="10" rx="5" fill="#1A5D64"/>
  <circle cx="603" cy="445" r="27" fill="#F5D37E"/>
  <circle cx="640" cy="445" r="15" fill="#083E4A"/>

  <rect x="760" y="330" width="290" height="300" rx="20" fill="#BCE3D8" stroke="#1E6164" stroke-width="8"/>
  <rect x="790" y="360" width="230" height="180" rx="16" fill="#093A54" stroke="#F4F7F7" stroke-width="6"/>
  <ellipse cx="855" cy="450" rx="20" ry="34" fill="#D2E4EB"/>
  <ellipse cx="955" cy="450" rx="20" ry="34" fill="#D2E4EB"/>
  <path d="M866 510C889 528 922 528 945 510" stroke="#A7D7DE" stroke-width="12" stroke-linecap="round"/>
  <rect x="870" y="548" width="74" height="14" rx="7" fill="#8CC9D0"/>

  <path d="M860 635L838 730" stroke="#1E6164" stroke-width="16" stroke-linecap="round"/>
  <path d="M932 635L954 730" stroke="#1E6164" stroke-width="16" stroke-linecap="round"/>
  <ellipse cx="840" cy="736" rx="48" ry="12" fill="#214F57" opacity="0.45"/>
  <ellipse cx="955" cy="736" rx="48" ry="12" fill="#214F57" opacity="0.45"/>

  <circle cx="595" cy="114" r="18" fill="#2D9290" opacity="0.55"/>
  <circle cx="644" cy="96" r="14" fill="#2D9290" opacity="0.5"/>
  <circle cx="673" cy="138" r="10" fill="#2D9290" opacity="0.5"/>
</svg>
